<?xml version="1.0" encoding="iso-8859-1"?>
<!-- Generator: Adobe Illustrator 18.0.0, SVG Export Plug-In . SVG Version: 6.00 Build 0)  -->
<!DOCTYPE svg PUBLIC "-//W3C//DTD SVG 1.1//EN" "http://www.w3.org/Graphics/SVG/1.1/DTD/svg11.dtd">
<svg version="1.1" id="Capa_1" xmlns="http://www.w3.org/2000/svg" xmlns:xlink="http://www.w3.org/1999/xlink" x="0px" y="0px"
	 viewBox="0 0 452.296 452.296" style="enable-background:new 0 0 452.296 452.296;" xml:space="preserve">
<g>
	<path style="fill:#191918;" d="M66.387,153.388L0,298.907h50.845l54.052-145.519H66.387z M44.587,289.907H13.998l58.176-127.519
		h19.779L44.587,289.907z"/>
	<path style="fill:#191918;" d="M100.635,298.907h50.296l23.943-145.519h-37.962L100.635,298.907z M164.272,162.388L143.29,289.907
		h-31.136l31.789-127.519H164.272z"/>
	<path style="fill:#191918;" d="M207.263,153.388l-6.167,145.519H251.2l-6.166-145.519H207.263z M210.484,289.907l5.405-127.519
		h20.518l5.404,127.519H210.484z"/>
	<path style="fill:#191918;" d="M277.423,153.388l23.942,145.519h50.296l-36.277-145.519H277.423z M309.006,289.907l-20.981-127.519
		h20.328l31.789,127.519H309.006z"/>
	<path style="fill:#191918;" d="M385.909,153.388h-38.51l54.053,145.519h50.844L385.909,153.388z M360.343,162.388h19.779
		l58.176,127.519H407.71L360.343,162.388z"/>
</g>
<g>
</g>
<g>
</g>
<g>
</g>
<g>
</g>
<g>
</g>
<g>
</g>
<g>
</g>
<g>
</g>
<g>
</g>
<g>
</g>
<g>
</g>
<g>
</g>
<g>
</g>
<g>
</g>
<g>
</g>
</svg>
