<?xml version="1.0" encoding="iso-8859-1"?>
<!-- Generator: Adobe Illustrator 19.0.0, SVG Export Plug-In . SVG Version: 6.00 Build 0)  -->
<svg version="1.1" id="Layer_1" xmlns="http://www.w3.org/2000/svg" xmlns:xlink="http://www.w3.org/1999/xlink" x="0px" y="0px"
	 viewBox="0 0 298.986 298.986" style="enable-background:new 0 0 298.986 298.986;" xml:space="preserve">
<g id="XMLID_1521_">
	<g>
		<g>
			<path d="M68.925,265.934l20.643-54.731l-3.057-19.472L59.676,294.856c-0.257,0.989-0.042,2.04,0.582,2.848
				c0.625,0.808,1.589,1.281,2.61,1.281h20.097C70.272,293.529,63.999,278.994,68.925,265.934z"/>
			<path d="M62.578,192.856c-0.625-0.808-1.589-1.281-2.61-1.281H30.385c-1.502,0-2.815,1.015-3.193,2.468L0.96,294.856
				c-0.257,0.989-0.042,2.04,0.582,2.848c0.625,0.808,1.589,1.281,2.61,1.281h29.582c1.502,0,2.815-1.015,3.193-2.468L63.16,195.704
				C63.417,194.716,63.202,193.664,62.578,192.856z"/>
			<path d="M238.728,192.857c-0.625-0.808-1.589-1.281-2.61-1.281h-29.583v-0.001c-1.502,0-2.815,1.015-3.193,2.468l-8.605,33.071
				l9.634,42.372c2.871,12.63-4.271,25.237-16.171,29.501h21.685c1.502,0,2.814-1.015,3.193-2.468l26.233-100.813
				C239.567,194.716,239.352,193.665,238.728,192.857z"/>
			<path d="M297.444,192.856c-0.625-0.808-1.589-1.281-2.61-1.281h-29.582c-1.502,0-2.815,1.015-3.193,2.468l-26.233,100.813
				c-0.257,0.989-0.042,2.04,0.582,2.848c0.625,0.808,1.589,1.281,2.61,1.281H268.6c1.502,0,2.815-1.015,3.193-2.468l26.233-100.813
				C298.284,194.716,298.069,193.664,297.444,192.856z"/>
			<path d="M141.317,221.057c-0.198,0.697-0.415,1.39-0.672,2.072l-11.571,30.679l-10.681,41.048
				c-0.257,0.989-0.042,2.04,0.582,2.848s1.589,1.281,2.61,1.281h29.582c1.502,0,2.815-1.015,3.193-2.468l2.605-10.012
				c-0.918-1.825-1.624-3.76-2.081-5.771L141.317,221.057z"/>
			<path d="M192.962,272.077l-15.505-68.198c-0.203-0.893-0.496-1.765-0.874-2.599l-18.795-41.59c0,0,1.965-22.859,2.478-28.825
				l33.419,27.73c4.836,4.012,12.007,3.344,16.018-1.49c4.012-4.835,3.344-12.006-1.49-16.017l-37.32-30.967l-7.792-12.23
				l1.649-19.185l0.012-0.14c0.676-7.866-4.121-14.938-11.228-17.464c-1.34-0.476-2.761-0.792-4.245-0.919l-30.187-2.595
				c-2.152-0.185-4.243,0.044-6.2,0.614c-5.05,1.47-9.191,5.236-11.103,10.189l15.293-2.168L72.499,83.596
				c-3.489,1.36-6.169,4.401-6.996,8.187l-9.714,44.476c-1.433,6.556,3.097,13.005,9.892,13.757
				c5.849,0.648,11.151-3.297,12.373-8.895l8.41-38.509l40.382-15.733l-29.13,21.091c-0.905,10.536-3.687,52.007-3.687,52.007
				s0.471,3.185,8.219,52.529l-21.792,57.777c-2.665,7.066,0.903,14.955,7.969,17.62c7.067,2.665,14.955-0.904,17.62-7.969
				l23.066-61.156c0.835-2.215,1.082-4.608,0.714-6.947l-4.618-29.415l-3.145-20.03l7.212,0.62l21.818,48.279l15.2,66.854
				c1.674,7.363,9.001,11.977,16.366,10.302C190.023,286.769,194.635,279.442,192.962,272.077z"/>
			<path d="M139.316,50.211c13.785,1.185,26.019-9.019,27.213-22.904c1.19-13.839-9.065-26.023-22.904-27.213
				c-13.839-1.19-26.023,9.065-27.213,22.904C115.215,36.928,125.589,49.031,139.316,50.211z"/>
		</g>
	</g>
</g>
<g>
</g>
<g>
</g>
<g>
</g>
<g>
</g>
<g>
</g>
<g>
</g>
<g>
</g>
<g>
</g>
<g>
</g>
<g>
</g>
<g>
</g>
<g>
</g>
<g>
</g>
<g>
</g>
<g>
</g>
</svg>
